{
  "accessors": [
    {
      "bufferView": 2,
      "componentType": 5126,
      "count": 12608,
      "max": [
        2.2777926921844482,
        2.721013307571411,
        2.2777926921844482
      ],
      "min": [
        -2.2777926921844482,
        0.0,
        -2.2777926921844482
      ],
      "type": "VEC3"
    },
    {
      "bufferView": 2,
      "byteOffset": 151296,
      "componentType": 5126,
      "count": 12608,
      "max": [
        0.9982359409332275,
        0.678586483001709,
        0.9985107183456421
      ],
      "min": [
        -0.9982353448867798,
        -1.0,
        -0.9985114932060242
      ],
      "type": "VEC3"
    },
    {
      "bufferView": 1,
      "componentType": 5126,
      "count": 12608,
      "max": [
        1.0033771991729736,
        1.0017247200012207
      ],
      "min": [
        -0.0033773058094084263,
        -0.00172501802444458
      ],
      "type": "VEC2"
    },
    {
      "bufferView": 0,
      "componentType": 5125,
      "count": 19002,
      "type": "SCALAR"
    },
    {
      "bufferView": 2,
      "byteOffset": 302592,
      "componentType": 5126,
      "count": 1792,
      "max": [
        2.2799999713897705,
        2.808976650238037,
        2.2799999713897705
      ],
      "min": [
        -2.2799999713897705,
        2.721013307571411,
        -2.2799999713897705
      ],
      "type": "VEC3"
    },
    {
      "bufferView": 2,
      "byteOffset": 324096,
      "componentType": 5126,
      "count": 1792,
      "max": [
        0.9987954497337341,
        0.7071425318717957,
        0.9987955093383789
      ],
      "min": [
        -0.9987955093383789,
        -0.705858588218689,
        -0.9987955093383789
      ],
      "type": "VEC3"
    },
    {
      "bufferView": 1,
      "byteOffset": 100864,
      "componentType": 5126,
      "count": 1792,
      "max": [
        1.0,
        1.0
      ],
      "min": [
        0.0,
        0.0
      ],
      "type": "VEC2"
    },
    {
      "bufferView": 0,
      "byteOffset": 76008,
      "componentType": 5125,
      "count": 2688,
      "type": "SCALAR"
    },
    {
      "bufferView": 2,
      "byteOffset": 345600,
      "componentType": 5126,
      "count": 741,
      "max": [
        2.2777884006500244,
        2.809999942779541,
        2.2777884006500244
      ],
      "min": [
        -2.2777884006500244,
        2.808976650238037,
        -2.2777884006500244
      ],
      "type": "VEC3"
    },
    {
      "bufferView": 2,
      "byteOffset": 354492,
      "componentType": 5126,
      "count": 741,
      "max": [
        0.4534211754798889,
        1.0,
        0.45342114567756653
      ],
      "min": [
        -0.4534212350845337,
        0.8909950256347656,
        -0.45342105627059937
      ],
      "type": "VEC3"
    },
    {
      "bufferView": 1,
      "byteOffset": 115200,
      "componentType": 5126,
      "count": 741,
      "max": [
        0.9994152188301086,
        0.9994145035743713
      ],
      "min": [
        0.0005848048022016883,
        0.0005848315195180476
      ],
      "type": "VEC2"
    },
    {
      "bufferView": 0,
      "byteOffset": 86760,
      "componentType": 5125,
      "count": 1338,
      "type": "SCALAR"
    },
    {
      "bufferView": 2,
      "byteOffset": 363384,
      "componentType": 5126,
      "count": 12608,
      "max": [
        2.2777926921844482,
        2.721013307571411,
        2.2777926921844482
      ],
      "min": [
        -2.2777926921844482,
        0.0,
        -2.2777926921844482
      ],
      "type": "VEC3"
    },
    {
      "bufferView": 2,
      "byteOffset": 514680,
      "componentType": 5126,
      "count": 12608,
      "max": [
        0.9982359409332275,
        0.678586483001709,
        0.9985107183456421
      ],
      "min": [
        -0.9982353448867798,
        -1.0,
        -0.9985114932060242
      ],
      "type": "VEC3"
    },
    {
      "bufferView": 1,
      "byteOffset": 121128,
      "componentType": 5126,
      "count": 12608,
      "max": [
        1.0033771991729736,
        1.0017247200012207
      ],
      "min": [
        -0.0033773058094084263,
        -0.00172501802444458
      ],
      "type": "VEC2"
    },
    {
      "bufferView": 0,
      "byteOffset": 92112,
      "componentType": 5125,
      "count": 19002,
      "type": "SCALAR"
    },
    {
      "bufferView": 2,
      "byteOffset": 665976,
      "componentType": 5126,
      "count": 1792,
      "max": [
        2.2799999713897705,
        2.808976650238037,
        2.2799999713897705
      ],
      "min": [
        -2.2799999713897705,
        2.721013307571411,
        -2.2799999713897705
      ],
      "type": "VEC3"
    },
    {
      "bufferView": 2,
      "byteOffset": 687480,
      "componentType": 5126,
      "count": 1792,
      "max": [
        0.9987954497337341,
        0.7071425318717957,
        0.9987955093383789
      ],
      "min": [
        -0.9987955093383789,
        -0.705858588218689,
        -0.9987955093383789
      ],
      "type": "VEC3"
    },
    {
      "bufferView": 1,
      "byteOffset": 221992,
      "componentType": 5126,
      "count": 1792,
      "max": [
        1.0,
        1.0
      ],
      "min": [
        0.0,
        0.0
      ],
      "type": "VEC2"
    },
    {
      "bufferView": 0,
      "byteOffset": 168120,
      "componentType": 5125,
      "count": 2688,
      "type": "SCALAR"
    },
    {
      "bufferView": 2,
      "byteOffset": 708984,
      "componentType": 5126,
      "count": 741,
      "max": [
        2.2777884006500244,
        2.809999942779541,
        2.2777884006500244
      ],
      "min": [
        -2.2777884006500244,
        2.808976650238037,
        -2.2777884006500244
      ],
      "type": "VEC3"
    },
    {
      "bufferView": 2,
      "byteOffset": 717876,
      "componentType": 5126,
      "count": 741,
      "max": [
        0.4534211754798889,
        1.0,
        0.45342114567756653
      ],
      "min": [
        -0.4534212350845337,
        0.8909950256347656,
        -0.45342105627059937
      ],
      "type": "VEC3"
    },
    {
      "bufferView": 1,
      "byteOffset": 236328,
      "componentType": 5126,
      "count": 741,
      "max": [
        0.9994152188301086,
        0.9994145035743713
      ],
      "min": [
        0.0005848048022016883,
        0.0005848315195180476
      ],
      "type": "VEC2"
    },
    {
      "bufferView": 0,
      "byteOffset": 178872,
      "componentType": 5125,
      "count": 1338,
      "type": "SCALAR"
    },
    {
      "bufferView": 2,
      "byteOffset": 726768,
      "componentType": 5126,
      "count": 12608,
      "max": [
        2.2777926921844482,
        2.721013307571411,
        2.2777926921844482
      ],
      "min": [
        -2.2777926921844482,
        0.0,
        -2.2777926921844482
      ],
      "type": "VEC3"
    },
    {
      "bufferView": 2,
      "byteOffset": 878064,
      "componentType": 5126,
      "count": 12608,
      "max": [
        0.9982359409332275,
        0.678586483001709,
        0.9985107183456421
      ],
      "min": [
        -0.9982353448867798,
        -1.0,
        -0.9985114932060242
      ],
      "type": "VEC3"
    },
    {
      "bufferView": 1,
      "byteOffset": 242256,
      "componentType": 5126,
      "count": 12608,
      "max": [
        1.0033771991729736,
        1.0017247200012207
      ],
      "min": [
        -0.0033773058094084263,
        -0.00172501802444458
      ],
      "type": "VEC2"
    },
    {
      "bufferView": 0,
      "byteOffset": 184224,
      "componentType": 5125,
      "count": 19002,
      "type": "SCALAR"
    },
    {
      "bufferView": 2,
      "byteOffset": 1029360,
      "componentType": 5126,
      "count": 1792,
      "max": [
        2.2799999713897705,
        2.808976650238037,
        2.2799999713897705
      ],
      "min": [
        -2.2799999713897705,
        2.721013307571411,
        -2.2799999713897705
      ],
      "type": "VEC3"
    },
    {
      "bufferView": 2,
      "byteOffset": 1050864,
      "componentType": 5126,
      "count": 1792,
      "max": [
        0.9987954497337341,
        0.7071425318717957,
        0.9987955093383789
      ],
      "min": [
        -0.9987955093383789,
        -0.705858588218689,
        -0.9987955093383789
      ],
      "type": "VEC3"
    },
    {
      "bufferView": 1,
      "byteOffset": 343120,
      "componentType": 5126,
      "count": 1792,
      "max": [
        1.0,
        1.0
      ],
      "min": [
        0.0,
        0.0
      ],
      "type": "VEC2"
    },
    {
      "bufferView": 0,
      "byteOffset": 260232,
      "componentType": 5125,
      "count": 2688,
      "type": "SCALAR"
    },
    {
      "bufferView": 2,
      "byteOffset": 1072368,
      "componentType": 5126,
      "count": 741,
      "max": [
        2.2777884006500244,
        2.809999942779541,
        2.2777884006500244
      ],
      "min": [
        -2.2777884006500244,
        2.808976650238037,
        -2.2777884006500244
      ],
      "type": "VEC3"
    },
    {
      "bufferView": 2,
      "byteOffset": 1081260,
      "componentType": 5126,
      "count": 741,
      "max": [
        0.4534211754798889,
        1.0,
        0.45342114567756653
      ],
      "min": [
        -0.4534212350845337,
        0.8909950256347656,
        -0.45342105627059937
      ],
      "type": "VEC3"
    },
    {
      "bufferView": 1,
      "byteOffset": 357456,
      "componentType": 5126,
      "count": 741,
      "max": [
        0.9994152188301086,
        0.9994145035743713
      ],
      "min": [
        0.0005848048022016883,
        0.0005848315195180476
      ],
      "type": "VEC2"
    },
    {
      "bufferView": 0,
      "byteOffset": 270984,
      "componentType": 5125,
      "count": 1338,
      "type": "SCALAR"
    }
  ],
  "asset": {
    "extras": {
      "author": "Christian (https://sketchfab.com/Enzi1984)",
      "license": "CC-BY-NC-4.0 (http://creativecommons.org/licenses/by-nc/4.0/)",
      "source": "https://sketchfab.com/3d-models/coffee-capsule-tchibo-66c6e72b4d654edea8e24fd49eb229a1",
      "title": "coffee capsule, Tchibo"
    },
    "generator": "Sketchfab-12.68.0",
    "version": "2.0"
  },
  "bufferViews": [
    {
      "buffer": 0,
      "byteLength": 276336,
      "name": "floatBufferViews",
      "target": 34963
    },
    {
      "buffer": 0,
      "byteLength": 363384,
      "byteOffset": 276336,
      "byteStride": 8,
      "name": "floatBufferViews",
      "target": 34962
    },
    {
      "buffer": 0,
      "byteLength": 1090152,
      "byteOffset": 639720,
      "byteStride": 12,
      "name": "floatBufferViews",
      "target": 34962
    }
  ],
  "buffers": [
    {
      "byteLength": 1729872,
      "uri": "scene.bin"
    }
  ],
  "images": [
    {
      "uri": "textures/lid-red_baseColor.jpeg"
    },
    {
      "uri": "textures/lid-black_baseColor.jpeg"
    },
    {
      "uri": "textures/lid-orange_baseColor.jpeg"
    }
  ],
  "materials": [
    {
      "doubleSided": true,
      "name": "case",
      "pbrMetallicRoughness": {
        "baseColorFactor": [
          0.039999999999999994,
          0.037143600000000006,
          0.020149000000000007,
          1.0
        ],
        "metallicFactor": 0.5,
        "roughnessFactor": 0.5
      }
    },
    {
      "doubleSided": true,
      "name": "white",
      "pbrMetallicRoughness": {
        "baseColorFactor": [
          0.8,
          0.8,
          0.8,
          1.0
        ],
        "metallicFactor": 0.0,
        "roughnessFactor": 0.5
      }
    },
    {
      "doubleSided": true,
      "name": "lid-red",
      "pbrMetallicRoughness": {
        "baseColorTexture": {
          "index": 0
        },
        "metallicFactor": 0.5,
        "roughnessFactor": 0.5
      }
    },
    {
      "doubleSided": true,
      "name": "lid-black",
      "pbrMetallicRoughness": {
        "baseColorTexture": {
          "index": 1
        },
        "metallicFactor": 0.5,
        "roughnessFactor": 0.5
      }
    },
    {
      "doubleSided": true,
      "name": "lid-orange",
      "pbrMetallicRoughness": {
        "baseColorTexture": {
          "index": 2
        },
        "metallicFactor": 0.5,
        "roughnessFactor": 0.5
      }
    }
  ],
  "meshes": [
    {
      "name": "Object_0",
      "primitives": [
        {
          "attributes": {
            "NORMAL": 1,
            "POSITION": 0,
            "TEXCOORD_0": 2
          },
          "indices": 3,
          "material": 0,
          "mode": 4
        }
      ]
    },
    {
      "name": "Object_1",
      "primitives": [
        {
          "attributes": {
            "NORMAL": 5,
            "POSITION": 4,
            "TEXCOORD_0": 6
          },
          "indices": 7,
          "material": 1,
          "mode": 4
        }
      ]
    },
    {
      "name": "Object_2",
      "primitives": [
        {
          "attributes": {
            "NORMAL": 9,
            "POSITION": 8,
            "TEXCOORD_0": 10
          },
          "indices": 11,
          "material": 2,
          "mode": 4
        }
      ]
    },
    {
      "name": "Object_3",
      "primitives": [
        {
          "attributes": {
            "NORMAL": 13,
            "POSITION": 12,
            "TEXCOORD_0": 14
          },
          "indices": 15,
          "material": 0,
          "mode": 4
        }
      ]
    },
    {
      "name": "Object_4",
      "primitives": [
        {
          "attributes": {
            "NORMAL": 17,
            "POSITION": 16,
            "TEXCOORD_0": 18
          },
          "indices": 19,
          "material": 1,
          "mode": 4
        }
      ]
    },
    {
      "name": "Object_5",
      "primitives": [
        {
          "attributes": {
            "NORMAL": 21,
            "POSITION": 20,
            "TEXCOORD_0": 22
          },
          "indices": 23,
          "material": 3,
          "mode": 4
        }
      ]
    },
    {
      "name": "Object_6",
      "primitives": [
        {
          "attributes": {
            "NORMAL": 25,
            "POSITION": 24,
            "TEXCOORD_0": 26
          },
          "indices": 27,
          "material": 0,
          "mode": 4
        }
      ]
    },
    {
      "name": "Object_7",
      "primitives": [
        {
          "attributes": {
            "NORMAL": 29,
            "POSITION": 28,
            "TEXCOORD_0": 30
          },
          "indices": 31,
          "material": 1,
          "mode": 4
        }
      ]
    },
    {
      "name": "Object_8",
      "primitives": [
        {
          "attributes": {
            "NORMAL": 33,
            "POSITION": 32,
            "TEXCOORD_0": 34
          },
          "indices": 35,
          "material": 4,
          "mode": 4
        }
      ]
    }
  ],
  "nodes": [
    {
      "children": [
        1
      ],
      "matrix": [
        1.0,
        0.0,
        0.0,
        0.0,
        0.0,
        2.220446049250313e-16,
        -1.0,
        0.0,
        0.0,
        1.0,
        2.220446049250313e-16,
        0.0,
        0.0,
        0.0,
        0.0,
        1.0
      ],
      "name": "Sketchfab_model"
    },
    {
      "children": [
        2
      ],
      "name": "root"
    },
    {
      "children": [
        3,
        7,
        11
      ],
      "matrix": [
        1.0,
        0.0,
        0.0,
        0.0,
        0.0,
        2.220446049250313e-16,
        1.0,
        0.0,
        0.0,
        -1.0,
        2.220446049250313e-16,
        0.0,
        0.0,
        0.0,
        0.0,
        1.0
      ],
      "name": "GLTF_SceneRootNode"
    },
    {
      "children": [
        4,
        5,
        6
      ],
      "matrix": [
        -0.1391730544289944,
        0.0,
        -0.9902680752810848,
        0.0,
        0.0,
        1.0,
        0.0,
        0.0,
        0.9902680752810848,
        0.0,
        -0.1391730544289944,
        0.0,
        0.0,
        0.0,
        0.0,
        1.0
      ],
      "name": "coffee-capsule_red_0"
    },
    {
      "mesh": 0,
      "name": "Object_4"
    },
    {
      "mesh": 1,
      "name": "Object_5"
    },
    {
      "mesh": 2,
      "name": "Object_6"
    },
    {
      "children": [
        8,
        9,
        10
      ],
      "matrix": [
        -0.1391730544289944,
        0.0,
        -0.9902680752810848,
        0.0,
        0.0,
        1.0,
        0.0,
        0.0,
        0.9902680752810848,
        0.0,
        -0.1391730544289944,
        0.0,
        -6.0,
        0.0,
        0.0,
        1.0
      ],
      "name": "coffee-capsule_black_1"
    },
    {
      "mesh": 3,
      "name": "Object_8"
    },
    {
      "mesh": 4,
      "name": "Object_9"
    },
    {
      "mesh": 5,
      "name": "Object_10"
    },
    {
      "children": [
        12,
        13,
        14
      ],
      "matrix": [
        -0.1391730544289944,
        0.0,
        -0.9902680752810848,
        0.0,
        0.0,
        1.0,
        0.0,
        0.0,
        0.9902680752810848,
        0.0,
        -0.1391730544289944,
        0.0,
        6.0,
        0.0,
        0.0,
        1.0
      ],
      "name": "coffee-capsule_orange_2"
    },
    {
      "mesh": 6,
      "name": "Object_12"
    },
    {
      "mesh": 7,
      "name": "Object_13"
    },
    {
      "mesh": 8,
      "name": "Object_14"
    }
  ],
  "samplers": [
    {
      "magFilter": 9729,
      "minFilter": 9987,
      "wrapS": 10497,
      "wrapT": 10497
    }
  ],
  "scene": 0,
  "scenes": [
    {
      "name": "Sketchfab_Scene",
      "nodes": [
        0
      ]
    }
  ],
  "textures": [
    {
      "sampler": 0,
      "source": 0
    },
    {
      "sampler": 0,
      "source": 1
    },
    {
      "sampler": 0,
      "source": 2
    }
  ]
}
